<svg width="470" height="162" viewBox="0 0 470 162" fill="none" xmlns="http://www.w3.org/2000/svg">
<path d="M142.801 82.3242C139.585 81.3997 137.241 80.2669 135.77 78.9258C134.311 77.5716 133.582 75.9049 133.582 73.9258C133.582 71.6862 134.474 69.8372 136.258 68.3789C138.055 66.9076 140.385 66.1719 143.25 66.1719C145.203 66.1719 146.941 66.5495 148.465 67.3047C150.001 68.0599 151.186 69.1016 152.02 70.4297C152.866 71.7578 153.289 73.2096 153.289 74.7852H149.52C149.52 73.0664 148.973 71.7188 147.879 70.7422C146.785 69.7526 145.242 69.2578 143.25 69.2578C141.401 69.2578 139.956 69.668 138.914 70.4883C137.885 71.2956 137.371 72.4219 137.371 73.8672C137.371 75.026 137.859 76.0091 138.836 76.8164C139.826 77.6107 141.499 78.3398 143.855 79.0039C146.225 79.668 148.074 80.4036 149.402 81.2109C150.743 82.0052 151.733 82.9362 152.371 84.0039C153.022 85.0716 153.348 86.3281 153.348 87.7734C153.348 90.0781 152.449 91.9271 150.652 93.3203C148.855 94.7005 146.453 95.3906 143.445 95.3906C141.492 95.3906 139.669 95.0195 137.977 94.2773C136.284 93.5221 134.975 92.4935 134.051 91.1914C133.139 89.8893 132.684 88.4115 132.684 86.7578H136.453C136.453 88.4766 137.085 89.8372 138.348 90.8398C139.624 91.8294 141.323 92.3242 143.445 92.3242C145.424 92.3242 146.941 91.9206 147.996 91.1133C149.051 90.306 149.578 89.2057 149.578 87.8125C149.578 86.4193 149.09 85.3451 148.113 84.5898C147.137 83.8216 145.366 83.0664 142.801 82.3242ZM161.531 95H157.918V73.8672H161.531V95ZM157.625 68.2617C157.625 67.6758 157.801 67.181 158.152 66.7773C158.517 66.3737 159.051 66.1719 159.754 66.1719C160.457 66.1719 160.991 66.3737 161.355 66.7773C161.72 67.181 161.902 67.6758 161.902 68.2617C161.902 68.8477 161.72 69.3359 161.355 69.7266C160.991 70.1172 160.457 70.3125 159.754 70.3125C159.051 70.3125 158.517 70.1172 158.152 69.7266C157.801 69.3359 157.625 68.8477 157.625 68.2617ZM170.73 73.8672L170.828 76.2109C172.378 74.388 174.467 73.4766 177.098 73.4766C180.053 73.4766 182.065 74.6094 183.133 76.875C183.836 75.8594 184.747 75.0391 185.867 74.4141C187 73.7891 188.335 73.4766 189.871 73.4766C194.507 73.4766 196.863 75.931 196.941 80.8398V95H193.328V81.0547C193.328 79.5443 192.983 78.418 192.293 77.6758C191.603 76.9206 190.444 76.543 188.816 76.543C187.475 76.543 186.362 76.9466 185.477 77.7539C184.591 78.5482 184.077 79.6224 183.934 80.9766V95H180.301V81.1523C180.301 78.0794 178.797 76.543 175.789 76.543C173.419 76.543 171.798 77.5521 170.926 79.5703V95H167.312V73.8672H170.73ZM220.262 84.668C220.262 87.8841 219.526 90.4753 218.055 92.4414C216.583 94.4076 214.591 95.3906 212.078 95.3906C209.513 95.3906 207.495 94.5768 206.023 92.9492V103.125H202.41V73.8672H205.711L205.887 76.2109C207.358 74.388 209.402 73.4766 212.02 73.4766C214.559 73.4766 216.564 74.4336 218.035 76.3477C219.52 78.2617 220.262 80.9245 220.262 84.3359V84.668ZM216.648 84.2578C216.648 81.875 216.141 79.9935 215.125 78.6133C214.109 77.2331 212.716 76.543 210.945 76.543C208.758 76.543 207.117 77.513 206.023 79.4531V89.5508C207.104 91.4779 208.758 92.4414 210.984 92.4414C212.716 92.4414 214.09 91.7578 215.105 90.3906C216.134 89.0104 216.648 86.9661 216.648 84.2578ZM228.797 95H225.184V65H228.797V95ZM243.367 95.3906C240.503 95.3906 238.172 94.4531 236.375 92.5781C234.578 90.6901 233.68 88.1706 233.68 85.0195V84.3555C233.68 82.2591 234.077 80.3906 234.871 78.75C235.678 77.0964 236.798 75.8073 238.23 74.8828C239.676 73.9453 241.238 73.4766 242.918 73.4766C245.665 73.4766 247.801 74.3815 249.324 76.1914C250.848 78.0013 251.609 80.5924 251.609 83.9648V85.4688H237.293C237.345 87.5521 237.951 89.2383 239.109 90.5273C240.281 91.8034 241.766 92.4414 243.562 92.4414C244.839 92.4414 245.919 92.181 246.805 91.6602C247.69 91.1393 248.465 90.4492 249.129 89.5898L251.336 91.3086C249.565 94.0299 246.909 95.3906 243.367 95.3906ZM242.918 76.4453C241.46 76.4453 240.236 76.9792 239.246 78.0469C238.257 79.1016 237.645 80.5859 237.41 82.5H247.996V82.2266C247.892 80.3906 247.397 78.9714 246.512 77.9688C245.626 76.9531 244.428 76.4453 242.918 76.4453ZM288.152 95H284.383L270.066 73.0859V95H266.297V66.5625H270.066L284.422 88.5742V66.5625H288.152V95ZM310.496 82.4414H298.562V95H294.812V66.5625H312.43V69.6484H298.562V79.375H310.496V82.4414ZM336.961 69.6484H327.82V95H324.09V69.6484H314.969V66.5625H336.961V69.6484Z" fill="black"/>
<line y1="121.5" x2="470.001" y2="121.5" stroke="black"/>
</svg>
