<svg width="100" height="94" viewBox="0 0 100 94" fill="none" xmlns="http://www.w3.org/2000/svg">
<path d="M65.1319 21.7118L54.6806 37.2292C54.5317 37.4526 54.4688 37.7225 54.5035 37.9887C54.5382 38.255 54.6681 38.4997 54.8693 38.6775C55.0704 38.8554 55.3292 38.9544 55.5977 38.9562C55.8662 38.9581 56.1263 38.8626 56.3299 38.6875L66.6181 29.7639C66.6783 29.71 66.753 29.6747 66.833 29.6625C66.913 29.6503 66.9948 29.6617 67.0684 29.6952C67.1421 29.7287 67.2044 29.7829 67.2477 29.8512C67.291 29.9195 67.3136 29.999 67.3125 30.0799V58.0174C67.3125 58.1029 67.2861 58.1863 67.237 58.2564C67.1879 58.3264 67.1185 58.3796 67.0381 58.4088C66.9577 58.438 66.8703 58.4418 66.7877 58.4196C66.7051 58.3974 66.6313 58.3503 66.5764 58.2847L35.4792 21.059C34.979 20.4684 34.3562 19.9938 33.654 19.6682C32.9518 19.3426 32.1872 19.1738 31.4132 19.1736H30.3264C28.9137 19.1736 27.559 19.7348 26.5601 20.7337C25.5612 21.7326 25 23.0874 25 24.5V63.8472C25 65.2599 25.5612 66.6147 26.5601 67.6135C27.559 68.6124 28.9137 69.1736 30.3264 69.1736V69.1736C31.2372 69.1739 32.1329 68.9407 32.928 68.4963C33.723 68.052 34.391 67.4113 34.8681 66.6354L45.3194 51.1181C45.4683 50.8946 45.5312 50.6248 45.4965 50.3585C45.4618 50.0923 45.3319 49.8476 45.1307 49.6697C44.9295 49.4918 44.6708 49.3928 44.4023 49.391C44.1338 49.3892 43.8737 49.4846 43.6701 49.6597L33.3819 58.5833C33.3216 58.6373 33.247 58.6725 33.167 58.6847C33.087 58.6969 33.0052 58.6856 32.9316 58.6521C32.8579 58.6186 32.7956 58.5643 32.7523 58.496C32.709 58.4277 32.6864 58.3483 32.6875 58.2674V30.3229C32.6875 30.2374 32.7139 30.1539 32.763 30.0839C32.8121 30.0139 32.8815 29.9606 32.9619 29.9314C33.0423 29.9022 33.1297 29.8985 33.2123 29.9207C33.2949 29.9429 33.3687 29.99 33.4236 30.0556L64.5174 67.2882C65.0175 67.8788 65.6404 68.3535 66.3425 68.6791C67.0447 69.0047 67.8094 69.1734 68.5833 69.1736H69.6701C70.3699 69.1741 71.0629 69.0366 71.7095 68.7692C72.3562 68.5017 72.9437 68.1094 73.4387 67.6148C73.9337 67.1201 74.3263 66.5328 74.5942 65.8863C74.8621 65.2399 75 64.547 75 63.8472V24.5C75 23.0874 74.4388 21.7326 73.4399 20.7337C72.441 19.7348 71.0863 19.1736 69.6736 19.1736C68.7628 19.1734 67.8671 19.4066 67.072 19.8509C66.277 20.2952 65.609 20.9359 65.1319 21.7118V21.7118Z" fill="white"/>
</svg>
